<svg id="Layer_1" xmlns="http://www.w3.org/2000/svg" viewBox="0 0 425.2 183.8"><style>.st0{fill:#1d1d1b}.st1{fill:#e2231a}</style><path class="st0" d="M224 170.2h-10.8l5.1-13.6 5.7 13.6zm-.7-21.9h-10.1l-14.1 35h9.2l2.6-6.9h15.6l2.9 6.9h9.4l-15.5-35zm57.4 24.3c-5 2.4-8.1 3.8-12.7 3.8-7.3 0-12.5-4.4-12.5-10.7 0-6.2 5.3-10.6 12.7-10.6 4.3 0 8.2 1.4 12 3.6v-7.8c-3.4-2.1-7.8-3.1-12.7-3.1-13.4 0-21 8.7-21 18.1 0 9 6.8 17.9 20.4 17.9 5.2 0 8.9-1 13.8-3.5v-7.7zm43.6-24.3h-34v6.4H303v28.6h8.7v-28.6h12.6zm10.8 0h8.7v35h-8.7zm54.9 0h-9.4l-8.8 19.9-9.2-19.9h-9.5l16.9 35.4h3.8zm34.9 28.5h-17.1v-8.4h16V162h-16v-7.3h16.7v-6.4h-25.4v35h25.8z"/><path class="st1" d="M307.9 12.7c0-7 5.7-12.7 12.7-12.7s12.7 5.7 12.7 12.7-5.7 12.7-12.7 12.7-12.7-5.7-12.7-12.7"/><path class="st0" d="M300.8 14.4l.5-.1 1.4 6.3c-29.3 6.6-51.1 29.7-55.9 59.4l-6.4-1c5.2-31.9 28.8-57.5 60.4-64.6M38.7 83.1c0-4.5-1.2-8-3.4-10.5s-5.7-3.7-10.2-3.7c-4.6 0-8.3 1.4-11 4.1s-4.3 6.1-4.6 10.1h29.2zm8.5 6.6H9.4c0 3.1.4 5.9 1.4 8.2.9 2.3 2.2 4.2 3.9 5.8 1.6 1.5 3.5 2.6 5.7 3.3 2.2.7 4.6 1.1 7.2 1.1 3.5 0 7-.7 10.5-2.1s6.1-2.8 7.6-4.1h.5v9.4c-2.9 1.2-5.9 2.3-8.9 3.1-3 .8-6.2 1.3-9.5 1.3-8.5 0-15.2-2.3-19.9-6.9C3 104.1.6 97.5.6 89.1s2.3-15.1 6.9-20 10.6-7.4 18.1-7.4c6.9 0 12.2 2.1 16 6.1s5.7 9.8 5.7 17.2l-.1 4.7zm57.3-26.5l-20.7 51.2h-8.7L54.5 63.2h9.4l15.9 40.7 15.7-40.7zm45 19.9c0-4.5-1.2-8-3.4-10.5s-5.7-3.7-10.2-3.7c-4.6 0-8.3 1.4-11.1 4.1-2.7 2.7-4.3 6.1-4.6 10.1h29.3zm8.4 6.6h-37.8c0 3.1.5 5.9 1.4 8.2.9 2.3 2.3 4.2 3.9 5.8 1.6 1.5 3.5 2.6 5.7 3.3 2.2.7 4.6 1.1 7.2 1.1 3.5 0 7-.7 10.5-2.1s6.1-2.8 7.6-4.1h.5v9.4c-2.9 1.2-5.9 2.3-8.9 3.1-3 .8-6.2 1.3-9.5 1.3-8.5 0-15.1-2.3-19.9-6.9s-7.2-11.2-7.2-19.6 2.3-15.1 6.8-20c4.6-4.9 10.6-7.4 18.1-7.4 6.9 0 12.2 2.1 16 6.1s5.7 9.8 5.7 17.2v4.6h-.1zm45-17.2h-.5c-1.3-.3-2.5-.5-3.8-.6-1.2-.2-2.6-.3-4.3-.3-2.7 0-5.2.6-7.7 1.8-2.5 1.1-4.9 2.7-7.2 4.5v36.4H171V63.2h8.6v7.5c3.4-2.7 6.4-4.7 9-5.8 2.6-1.2 5.3-1.7 8-1.7 1.5 0 2.6 0 3.3.1.7 0 1.7.2 3 .4v8.8zm31.7 37l-8 23.8h-9.2l8.4-21.4-20.4-48.7h9.3l15.7 37.9zm66-20.7c0-6.6-1.3-11.6-3.9-14.8-2.6-3.2-6.2-4.8-10.8-4.8-4.7 0-8.3 1.6-10.9 4.8-2.6 3.2-3.9 8.2-3.9 14.8 0 6.4 1.3 11.3 3.9 14.6 2.6 3.3 6.2 4.9 10.9 4.9 4.6 0 8.2-1.6 10.8-4.9 2.6-3.2 3.9-8.1 3.9-14.6m8.9 0c0 8.3-2.1 14.9-6.4 19.8-4.3 4.8-10 7.2-17.2 7.2s-13-2.4-17.3-7.2c-4.2-4.8-6.4-11.4-6.4-19.8s2.1-14.9 6.4-19.8 10.1-7.3 17.3-7.3c7.2 0 12.9 2.5 17.2 7.3 4.2 4.9 6.4 11.5 6.4 19.8m56.2 25.6h-8.6V85.2c0-2.4-.1-4.6-.4-6.6-.3-2.1-.8-3.7-1.5-4.9-.8-1.3-1.9-2.2-3.3-2.8-1.4-.7-3.3-1-5.6-1-2.4 0-4.8.6-7.4 1.7-2.6 1.2-5 2.6-7.4 4.5v38.3h-8.6V63.2h8.6v5.7c2.7-2.2 5.5-4 8.3-5.2 2.9-1.3 5.8-1.9 8.8-1.9 5.6 0 9.8 1.7 12.7 5 2.9 3.3 4.3 8.2 4.3 14.4v33.2h.1zm51.1-31.3c0-4.5-1.2-8-3.4-10.5s-5.7-3.7-10.2-3.7c-4.6 0-8.3 1.4-11.1 4.1-2.7 2.7-4.3 6.1-4.6 10.1h29.3zm8.4 6.6h-37.8c0 3.1.5 5.9 1.4 8.2 1 2.3 2.2 4.2 3.9 5.8 1.6 1.5 3.5 2.6 5.6 3.3 2.2.7 4.6 1.1 7.2 1.1 3.5 0 7-.7 10.5-2.1s6.1-2.8 7.6-4.1h.5v9.4c-2.9 1.2-5.9 2.3-8.9 3.1-3 .8-6.2 1.3-9.5 1.3-8.5 0-15.2-2.3-19.9-6.9-4.8-4.6-7.2-11.2-7.2-19.6s2.3-15.1 6.8-20c4.6-4.9 10.6-7.4 18.1-7.4 6.9 0 12.2 2.1 16 6.1s5.6 9.8 5.6 17.2l.1 4.6z"/></svg>