<svg id="Layer_1" xmlns="http://www.w3.org/2000/svg" xmlns:xlink="http://www.w3.org/1999/xlink" viewBox="0 0 226.8 25.1"><style>.st0{fill:#2c3e50}.st1{fill:#fff}.st2,.st3{clip-path:url(#SVGID_2_);fill:#fff}.st3{clip-path:url(#SVGID_4_)}.st4,.st5{clip-path:url(#SVGID_6_);fill:#fff}.st5{clip-path:url(#SVGID_8_)}.st6,.st7{clip-path:url(#SVGID_10_);fill:#fff}.st7{clip-path:url(#SVGID_12_)}.st8{clip-path:url(#SVGID_14_);fill:#e32085}.st10,.st9{fill:#fff}.st9{clip-path:url(#SVGID_16_)}.st10{clip-path:url(#SVGID_18_)}.st11{clip-path:url(#SVGID_20_);fill:#28abe3}</style><path class="st0" d="M0 0v25.1h113.3L120 0z"/><path class="st1" d="M9.9 19.5V4.9H12v12.5h7.1v2.1zm23.3-2.1v2.1h-8.9V4.9H33v2h-6.7v4.2h5.9V13h-5.9v4.4zm5.7-12.5h2.2v14.6h-2.2z"/><defs><path id="SVGID_1_" d="M0 0h226.8v25.3H0z"/></defs><clipPath id="SVGID_2_"><use xlink:href="#SVGID_1_" overflow="visible"/></clipPath><path class="st2" d="M55.3 8.4l-.5-.5c-.2-.2-.5-.3-.8-.5-.3-.1-.6-.3-1-.4-.4-.1-.7-.1-1.1-.1-.9 0-1.5.2-1.9.5-.4.4-.6.9-.6 1.5 0 .4.1.6.2.9.1.2.3.4.6.6.3.2.6.3 1 .4.4.1.9.3 1.4.4.6.2 1.3.4 1.8.6.5.2 1 .5 1.3.8.4.3.6.7.9 1.2.2.5.3 1 .3 1.7s-.1 1.4-.4 1.9c-.2.5-.6 1-1 1.3-.4.3-.9.6-1.5.7-.6.2-1.2.2-1.8.2-1 0-1.9-.2-2.9-.5s-1.7-.8-2.5-1.5l.9-2c.2.2.4.4.7.6.3.2.6.4 1 .6.4.2.8.3 1.3.5.5.1 1 .2 1.4.2.8 0 1.4-.2 1.9-.5.4-.3.6-.8.6-1.4 0-.4-.1-.7-.2-.9-.2-.2-.4-.5-.7-.6-.3-.2-.7-.3-1.1-.5-.4-.1-.9-.3-1.5-.5s-1.2-.4-1.7-.6c-.5-.2-.9-.5-1.2-.8-.3-.3-.6-.6-.7-1.1-.2-.4-.2-.9-.2-1.5 0-.7.1-1.4.4-1.9.2-.5.6-1 1-1.4.4-.4.9-.7 1.5-.9.6-.2 1.2-.3 1.9-.3.9 0 1.7.2 2.4.5.5.5 1.2.9 1.7 1.3l-.9 2z"/><defs><path id="SVGID_3_" d="M0 0h226.8v25.3H0z"/></defs><clipPath id="SVGID_4_"><use xlink:href="#SVGID_3_" overflow="visible"/></clipPath><path class="st3" d="M67.9 17.6c.7 0 1.3-.1 1.7-.4.4-.3.8-.7 1.1-1.2s.4-1 .5-1.7c.1-.6.1-1.3.1-1.9V4.9h2.2v7.5c0 1-.1 1.9-.4 2.8-.2.9-.6 1.7-1 2.3-.4.7-1.1 1.2-1.8 1.6-.7.4-1.6.6-2.6.6s-1.9-.2-2.6-.6c-.7-.4-1.3-1-1.7-1.6-.4-.7-.8-1.5-1-2.3-.2-.9-.3-1.8-.3-2.7V4.9h2v7.5c0 .7.1 1.3.2 1.9.1.6.3 1.2.6 1.7s.6.9 1.1 1.2c.6.2 1.2.4 1.9.4"/><defs><path id="SVGID_5_" d="M0 0h226.8v25.3H0z"/></defs><clipPath id="SVGID_6_"><use xlink:href="#SVGID_5_" overflow="visible"/></clipPath><path class="st4" d="M79.9 19.5V4.9h5.7c.6 0 1.1.2 1.6.4.4.3.8.7 1.2 1.1.3.4.6 1 .8 1.5.2.6.3 1.2.3 1.7s-.1 1-.2 1.4c-.1.4-.3.9-.5 1.3s-.5.7-.8 1c-.3.3-.7.4-1 .6l3 5.5h-2.3l-2.8-5.1h-3v5.1h-2zm2-7.1h3.6c.3 0 .6 0 .8-.2.2-.1.4-.3.6-.6.2-.3.3-.5.4-.9.1-.3.1-.7.1-1.1 0-.4-.1-.7-.2-1.1-.1-.2-.2-.5-.4-.8-.2-.2-.4-.5-.6-.6-.2-.1-.5-.3-.8-.3h-3.5v5.6z"/><defs><path id="SVGID_7_" d="M0 0h226.8v25.3H0z"/></defs><clipPath id="SVGID_8_"><use xlink:href="#SVGID_7_" overflow="visible"/></clipPath><path class="st5" d="M104.6 17.4v2.1h-8.9V4.9h8.7v2h-6.7v4.2h5.7V13h-5.7v4.4z"/><defs><path id="SVGID_9_" d="M0 0h226.8v25.3H0z"/></defs><clipPath id="SVGID_10_"><use xlink:href="#SVGID_9_" overflow="visible"/></clipPath><path class="st6" d="M179.5 12.5c0-1.5.3-3 .8-4.4s1.3-2.8 2.3-4c1-1.2 2.2-2.1 3.7-2.9s3.1-1.1 5-1.1c2.2 0 4.1.5 5.7 1.5 1.4.9 2.4 2 3.2 3.3.2.3 0 .7-.3.8-.3.1-.6 0-.7-.2-.4-.7-.9-1.3-1.4-1.8-.6-.6-1.3-1.1-2-1.5-.7-.4-1.5-.6-2.2-.8s-1.5-.2-2.3-.2c-1.7 0-3.1.3-4.4 1s-2.4 1.5-3.3 2.6c-.9 1.1-1.6 2.3-2 3.6-.4 1.4-.7 2.7-.7 4.1 0 1.5.3 3 .8 4.4.5 1.4 1.3 2.6 2.2 3.7 1 1.1 2 1.9 3.3 2.5 1.3.6 2.7 1 4.1 1 .8 0 1.6-.1 2.4-.3s1.6-.5 2.4-.9 1.5-.9 2.1-1.6c.5-.5 1-1.1 1.4-1.8.1-.2.4-.3.7-.2.3.1.5.5.3.8-.4.7-.9 1.3-1.4 1.9-.7.7-1.5 1.3-2.4 1.8-.9.5-1.8.9-2.8 1.1-1 .2-1.9.4-2.9.4-1.7 0-3.3-.4-4.7-1.1-1.4-.7-2.6-1.7-3.6-2.9s-1.8-2.6-2.4-4.1c-.6-1.6-.9-3.1-.9-4.7"/><defs><path id="SVGID_11_" d="M0 0h226.8v25.3H0z"/></defs><clipPath id="SVGID_12_"><use xlink:href="#SVGID_11_" overflow="visible"/></clipPath><path class="st7" d="M126.9 11.8V.9c0-.3-.3-.6-.6-.6s-.6.3-.6.6v23.6c0 .3.3.6.6.6s.6-.3.6-.6V11.8z"/><defs><path id="SVGID_13_" d="M0 0h226.8v25.3H0z"/></defs><clipPath id="SVGID_14_"><use xlink:href="#SVGID_13_" overflow="visible"/></clipPath><path class="st8" d="M144.2.3c-.3 0-.7.3-.7.6V12h-14v1h14v11.5c0 .3.4.6.7.6s.7-.3.7-.6V.9c0-.4-.4-.6-.7-.6"/><defs><path id="SVGID_15_" d="M0 0h226.8v25.3H0z"/></defs><clipPath id="SVGID_16_"><use xlink:href="#SVGID_15_" overflow="visible"/></clipPath><path class="st9" d="M174.3 24.3L164.2.7c-.1-.3-.4-.5-.7-.5s-.6.2-.7.5l-10.1 23.5c-.2.4.1.9.6.9.2 0 .5-.1.6-.4l9.7-23 9.7 23c.1.2.3.4.5.4.4 0 .7-.5.5-.8"/><defs><path id="SVGID_17_" d="M0 0h226.8v25.3H0z"/></defs><clipPath id="SVGID_18_"><use xlink:href="#SVGID_17_" overflow="visible"/></clipPath><path class="st10" d="M226 1.2c.3-.3.1-.9-.4-.9-.1 0-.3.1-.4.2l-15 15.4V.9c0-.3-.2-.6-.5-.6s-.5.3-.5.6v23.6c0 .3.2.6.5.6s.5-.3.5-.6v-7.1L226 1.2z"/><defs><path id="SVGID_19_" d="M0 0h226.8v25.3H0z"/></defs><clipPath id="SVGID_20_"><use xlink:href="#SVGID_19_" overflow="visible"/></clipPath><path class="st11" d="M226.7 24.2L218 13.1l-.8.8 8.6 11c.1.1.3.2.4.2.5 0 .8-.6.5-.9"/></svg>