<svg id="Layer_1" xmlns="http://www.w3.org/2000/svg" xmlns:xlink="http://www.w3.org/1999/xlink" viewBox="0 0 47 78.1"><style>.st0{fill:#e32085}.st0,.st1,.st2{clip-path:url(#SVGID_2_)}.st1{fill:#28abe3}.st2{fill:#f08235}</style><defs><path id="SVGID_1_" d="M26.6 66.8v-3.1h4.1v3.1c0 1.1-.9 2-2 2-1.2.1-2.1-.8-2.1-2m-11.3-5.1c-.6 0-1 .5-1 1 0 .6.5 1 1 1h9.2v3.1c0 2.3 1.8 4.1 4.1 4.1s4.1-1.8 4.1-4.1v-4.1c0-.6-.5-1-1-1H15.3zM35 51.8l-1.3 1.3-1.3-1.3c-.4-.4-1-.4-1.4 0-.4.4-.4 1 0 1.5l1.3 1.3-1.3 1.3c-.4.4-.4 1 0 1.5.2.2.5.3.7.3.3 0 .5-.1.7-.3l1.3-1.3 1.3 1.3c.2.2.5.3.7.3.3 0 .5-.1.7-.3.4-.4.4-1 0-1.5l-1.3-1.3 1.3-1.3c.4-.4.4-1.1 0-1.5-.2-.2-.5-.3-.7-.3-.2 0-.5.1-.7.3m-20.4 0l-1.3 1.3-1.3-1.3c-.4-.4-1-.4-1.4 0-.4.4-.4 1 0 1.5l1.3 1.3-1.3 1.3c-.4.4-.4 1 0 1.5.2.2.5.3.7.3.3 0 .5-.1.7-.3l1.3-1.3 1.3 1.3c.2.2.5.3.7.3.3 0 .5-.1.7-.3.4-.4.4-1 0-1.5l-1.3-1.3 1.3-1.3c.4-.4.4-1 0-1.5-.2-.2-.5-.3-.7-.3s-.5.1-.7.3m14-15.3c-.2.5.1 1.1.6 1.3 4.3 1.5 7.8 4.5 9.9 8.5.2.3.5.5.9.5.2 0 .3 0 .5-.1.5-.3.7-.9.4-1.4-2.4-4.5-6.3-7.8-11-9.5-.1 0-.2-.1-.3-.1-.5.1-.9.4-1 .8M2 54.5c0-10.4 7.4-19.3 17.6-21.1.6-.1.9-.6.8-1.2v-9.4h6.1v9.5c-.1.6.3 1.1.8 1.2C37.6 35.3 45 44.2 45 54.5 45 66.4 35.4 76 23.5 76S2 66.4 2 54.5m16.4-34.8c0-.6.5-1 1-1h8.2c.6 0 1 .5 1 1 0 .6-.5 1-1 1h-8.2c-.5 0-1-.4-1-1m1-3c-1.7 0-3.1 1.4-3.1 3.1 0 1.3.9 2.5 2 2.9v9C7.7 33.9 0 43.5 0 54.5c0 13 10.5 23.6 23.5 23.6S47 67.5 47 54.5c0-11.1-7.7-20.6-18.4-23v-9c1.2-.4 2-1.5 2-2.9 0-1.7-1.4-3.1-3.1-3.1h-8.1zm-1-6.2c0-1.1.9-2 2-2s2 .9 2 2-.9 2-2 2c-1.1.1-2-.9-2-2m-2 0c0 2.3 1.8 4.1 4.1 4.1s4.1-1.8 4.1-4.1-1.8-4.1-4.1-4.1-4.1 1.8-4.1 4.1m10.2-7.2c0-.6.5-1 1-1 .6 0 1 .5 1 1 0 .6-.5 1-1 1-.6.1-1-.4-1-1m-2.1 0c0 1.7 1.4 3.1 3.1 3.1 1.7 0 3.1-1.4 3.1-3.1 0-1.7-1.4-3.1-3.1-3.1-1.7.1-3.1 1.4-3.1 3.1"/></defs><clipPath id="SVGID_2_"><use xlink:href="#SVGID_1_" overflow="visible"/></clipPath><path class="st0" d="M-1.4 76.1S41.7.9 40.8.3c-.9-.6-20.3 0-20.3 0L-5.2 18.7l3.8 57.4z"/><path class="st1" d="M4.5 81.8C3.3 80.3 0 68.9 0 68.9l34.8-58.4s7.6 3.4 5.9 12.3c-3.9 21.6-19.5 61.5-20.2 61.5-1 0-16-2.5-16-2.5"/><path class="st2" d="M23.5 84.3c.1-1.9-5.1-13.4-5.1-13.4l18.4-40.1 26.3 35.5-26.3 20.8-13.3-2.8z"/></svg>