<svg id="Layer_1" xmlns="http://www.w3.org/2000/svg" viewBox="0 0 339.3 202.3"><style>.st0{fill:#e32285}.st1{fill:#fff}</style><path class="st0" d="M168.7 42.2c32.6 0 58.5 23.2 58.5 55.8 0 32.8-25.9 55.8-58.5 55.8-32.4 0-58.3-23-58.3-55.8 0-32.6 25.9-55.8 58.3-55.8zm0 89c17.3 0 31.7-13.4 31.7-33.2 0-19.6-14.4-33.2-31.7-33.2-17.1 0-31.5 13.6-31.5 33.2 0 19.8 14.4 33.2 31.5 33.2zm-67.4-6.9V44.7H74.9V137c0 10 4.2 14.2 14 14.2h12.3v-26.9zM74.9 24.2c0 1.1.5 5.6 5.9 5.6h20.4V17.2C101.3 7.3 96.9 3 87.1 3H68.9C73 5 75 9.1 75 15.6l-.1 8.6zm223.3 18c-20.1 0-31.4 11.5-36.6 20.3v-3.6c0-9.8-4.4-14.2-14.2-14.2h-23.1c6.6 3.5 10.1 16 10.7 24.6v67.8c0 10 4.2 14.2 14 14.2h12.5V98.1c.3-3.4.9-6.8 1.9-9.9 3.8-12.7 14.4-21.7 28.6-21.7 13.4 0 16.7 8.8 16.7 21.7V137c0 10 4.2 14.2 14.2 14.2h12.3V82.7c.1-28.2-13.4-40.5-37-40.5zM66.1 126.9c-16.5 2.5-20.9-3.6-21.7-5.7-.2-.6-.4-1.3-.6-2-.4-1.9-.5-3.1-.5-5.5V17.1C43.3 7.3 38.9 3 29.1 3H3.8s12.9 6.6 12.9 26.6v89.5c0 5 .5 9.5 1.5 13.4 1 4 2.9 7.4 5.7 10.1 2.8 2.8 6.6 5 11.4 6.5 1.8.6 3.8 1 6 1.4 13 2.9 24.8-.7 24.8-.7v-22.9z"/><path class="st1" d="M76.2 181.1h7.2c5.8 0 9.9 4 9.9 9.2v.1c0 5.2-4 9.3-9.9 9.3h-7.2v-18.6zm7.2 14.9c3.3 0 5.6-2.3 5.6-5.5v-.1c0-3.3-2.3-5.6-5.6-5.6h-3.2V196h3.2zm28.6-14.9h4.1v18.6H112v-18.6zm22.8 9.4c0-5.3 4.1-9.7 9.7-9.7 3.3 0 5.4.9 7.3 2.5l-2.6 3.1c-1.4-1.2-2.7-1.9-4.9-1.9-3 0-5.3 2.6-5.3 5.8v.1c0 3.4 2.3 5.9 5.6 5.9 1.5 0 2.8-.4 3.8-1.1v-2.7h-4.1V189h8.1v8.1c-1.9 1.6-4.5 2.9-7.9 2.9-5.7 0-9.7-4-9.7-9.5zm36.7-9.4h4.1v18.6h-4.1v-18.6zm27.9 3.8h-5.7v-3.8h15.4v3.8h-5.7v14.8h-4.1v-14.8zm31.7-3.9h3.8l8 18.7h-4.3l-1.7-4.2H229l-1.7 4.2h-4.2l8-18.7zm4.3 10.9l-2.5-6-2.5 6h5zm25.2-10.8h4.1V196h9.3v3.7h-13.3v-18.6z"/></svg>