<svg id="Layer_1" xmlns="http://www.w3.org/2000/svg" viewBox="0 0 334 63.3"><style>.st0{fill:#e41e1b}.st1{clip-path:url(#SVGID_2_);fill:#fff}.st2{clip-path:url(#SVGID_4_)}</style><path class="st0" d="M215.9 20.4c-1.1-1.1-2.3-1-3.9-1h-8.6c-3.7 0-5.8 1.6-6.4 4.9l-2.6 14.8c-.1.4-.1.8-.1 1.3 0 1 .3 1.8 1.1 2.4 1.1 1 2.1 1 3.7 1h9.1c1.7 0 2.4 0 3.8-1 1.5-1 2-2 2.3-3.6l2.6-14.9c.1-.4.1-.8.1-1.3 0-1-.3-1.8-1.1-2.6m8.2 2.1L221 40.9c-.5 3-1.9 5.5-4.6 7.4-2.6 1.7-4.5 1.8-7.7 1.8h-12.1c-2.8 0-5 0-7.2-1.8-1.7-1.5-2.3-3.2-2.3-5.2 0-.7.1-1.4.2-2.6l3.2-17.8c1.2-3.6 1.8-5.8 4.6-7.6 2.8-1.8 4.5-1.9 7.9-1.9h12.2c2.7 0 4.9 0 7 1.8 1.7 1.5 2.3 3.3 2.3 5.4-.1.7-.2 1.3-.4 2.1M32.2 19.4H16.8c-1.6 0-2.5-.1-3.9.7-2 1.1-2.5 3.1-2.5 5.2 0 2.7 2.6 2.9 5 2.9h9.2c4.9 0 7.6 3 7.6 7.3 0 1.9-.6 3.9-.9 5.8-.4 2.4-1.8 4.6-3.7 6.2-2.4 2.1-4.3 2.5-7.6 2.5H.6l1.1-6.3h17.5c4.3 0 5.6-2.7 5.6-6.2 0-2.4-1.5-3-3.9-3h-8.6c-4.8 0-9.1-2.1-9.1-6.9 0-2.1.6-4.2 1-6.3.5-2.7 2.4-5.2 4.8-6.7 2.2-1.3 4.5-1.5 7.1-1.5h17.3l-1.2 6.3zm19.4 0c-3.7 0-6 1.6-6.6 5l-3 17.8c-.2 1.1.6 1.6 1.5 1.6h12.8c3.3 0 5.4-1.8 6-4.7l2.6-14.8c.1-.5.1-.8.1-1.3 0-1-.3-1.8-1.1-2.6-1.1-1.1-2.3-1-3.9-1h-8.4zm20.5 3.3C71 28.8 70 34.8 68.9 40.9c-1 5.4-5.8 9.2-11.8 9.2H40.6l-2.3 13.2h-6.9l7-40.3c1.1-6.2 4.9-9.8 12-9.8h12.5c5.3 0 9.6 1.8 9.6 7.2-.1.7-.2 1.5-.4 2.3m97.4 21.2c3.7 0 6-1.6 6.6-5l3.1-17.8c.2-1.1-.6-1.6-1.5-1.6h-12.8c-3.3 0-5.4 1.8-6 4.7L156.2 39c-.1.4-.1.8-.1 1.3 0 1 .3 1.8 1.1 2.6 1.1 1.1 2.3 1 3.9 1h8.4zM149 40.6c1.1-6.1 2.1-12.1 3.2-18.2 1-5.4 5.8-9.2 11.8-9.2h16.5L182.9 0h6.9l-7 40.3c-1 6.2-4.9 9.8-12 9.8h-12.5c-5.3 0-9.6-1.8-9.6-7.2 0-.7.1-1.5.3-2.3m-28.3-16.5c.6-3.6 3.5-4.7 7.1-4.7h7.4c2.2 0 4.8.7 4.8 3.2 0 .4-.4 3.2-.7 5.1-.2 1.3-.7 1.5-1.8 1.5h-17.6l.8-5.1zm24.4 10.5c.5-2.6 2.2-12.2 2.2-14.8 0-5-3.8-6.8-8.7-6.8h-11.9c-6.9 0-11.3 3-12.4 9.5l-3 17.5c-.2 1-.2 2-.2 3 0 2.1.6 3.6 2.2 5 2.3 2 4.8 2.1 7.8 2.1h21.4l1-6.3h-20.1c-1.6 0-2.7.2-4-.9-1-.8-1.1-1.3-1.1-2.5 0-.9.7-4.8.8-5.7h26zm-62-10.5c.6-3.6 3.5-4.7 7.1-4.7h7.4c2.2 0 4.8.7 4.8 3.2 0 .4-.4 3.2-.6 5.1-.2 1.3-.7 1.5-1.8 1.5H82.4l.7-5.1zm24.3 10.5c.5-2.6 2.2-12.2 2.2-14.8 0-5-3.8-6.8-8.7-6.8H89c-6.9 0-11.3 3-12.4 9.5l-3 17.5c-.2 1-.2 2-.2 3 0 2.1.6 3.6 2.2 5 2.3 2 4.7 2.1 7.8 2.1h21.4l1-6.3H85.7c-1.6 0-2.7.2-4-.9-1-.8-1.1-1.3-1.1-2.5 0-.9.7-4.8.8-5.7h26zM232.5 9.1c0 2.2-1.8 4.1-4.1 4.1-2.2 0-4.1-1.8-4.1-4.1s1.8-4.1 4.1-4.1c2.3.1 4.1 1.9 4.1 4.1m-7.4 0c0 1.8 1.5 3.3 3.3 3.3 1.8 0 3.3-1.5 3.3-3.3 0-1.8-1.5-3.3-3.3-3.3-1.8.1-3.3 1.5-3.3 3.3m3.2-.3c.6 0 .8-.3.8-.6 0-.4-.3-.6-.9-.6h-.8v1.2h.9zm1 2.5l-.4-.7c-.2-.3-.4-.7-.6-.9-.2-.2-.3-.2-.7-.2h-.2v1.8h-.9V7h2.1c.9 0 1.4.5 1.4 1.2 0 .6-.4 1.1-1.2 1.2.4.1.5.2.9 1l.5.9h-.9zm-2.8 40.2c-1.5.5-2-.1-2.2-.6-.2-.6.1-1.3 1-1.8 0 0 48.7-24.3 49.3-24.7.7-.4.9-.5 1.1-.8.2-.2.4-.5.4-.9 0-.6-.3-1-1-1.2 0 0-28.9-6.6-29.1-6.7-.7-.2-1.2-.4-1.1-1.1 0-.3.2-.6.9-.6H330c1.8 0 3.1.3 3.3 1.6.2 1.5-1 2.3-4.2 3.4L226.5 51.5z"/></svg>