<svg id="Layer_1" xmlns="http://www.w3.org/2000/svg" viewBox="0 0 314.8 139.4"><style>.st0{fill:#005cb9}</style><path class="st0" d="M193.3 17.2h-32.9c-3.5 0-6.7.7-9.5 2s-5.3 3.6-7.3 7h3.4c1.1-1.6 2.5-3 4.2-4.1 6.1-4 14.3-2.4 17.5 2.5.3.5.5 1.1.7 1.6h21l-2.2 6.3c-3.1 8.9-7.7 15.8-13.8 20.9-6.1 5-13.6 7.5-22.6 7.5h-4.5l-.4 1.2h9.9c10.5 0 19.5-3.3 26.9-9.8 7.4-6.5 13.1-15.6 17.2-27.1l2.8-7.9h-10.4z"/><path d="M165.9 26.7l-2.8 2.4c-1.3-1.8-2.9-2.7-4.9-2.7-1.7 0-3.2.6-4.6 1.9-1.4 1.2-2.2 2.8-2.5 4.6-.2 1.3-.2 2.4.2 3.4.3 1 .9 1.8 1.8 2.3.8.6 1.8.8 3 .8 1 0 1.9-.2 2.8-.6.9-.4 1.9-1.1 3-2.1l1.8 2.6c-1.5 1.4-2.9 2.3-4.2 2.9-1.2.5-2.6.8-4.1.8-2.7 0-4.8-.9-6.2-2.8-1.4-1.9-1.9-4.3-1.4-7.2.3-1.9 1-3.6 2.1-5.1 1-1.5 2.4-2.7 4-3.6 1.6-.9 3.3-1.3 5-1.3 1.5 0 2.8.3 4 1 1.2.5 2.2 1.4 3 2.7zM32 88.7c-2.5 0-4.7.4-6.6 1.3-1.9.9-3.4 2.4-4.4 4.7h33.5l-.9 5c-1.1 6.3-3.5 11.3-7.3 14.9-3.7 3.6-8.7 5.4-15.1 5.4h-26l1.7-9.5h23.6c2.5 0 4.7-.5 6.6-1.4 1.9-.9 3.3-2.6 4.3-5H8.1l.8-4.6c1.1-6.3 3.5-11.3 7.2-14.9 3.7-3.6 8.8-5.4 15.2-5.4h25.9l-1.7 9.5H32zm55.8-.4L82.2 120H71.6l5.6-31.6H62.6l1.6-9.2h40l-1.6 9.2H87.8zm80.7 11.1c-.4 2.3-.6 4.3-.5 5.8.1 1.5.4 2.7 1.1 3.6.6.9 1.6 1.5 2.9 1.8 1.3.3 2.9.5 4.8.5h12.8l1.2-6.7h-8.3l1.7-9.6h19l-4.4 25.1h-26.3c-2.7 0-5.1-.4-7.2-1.1-2.1-.7-3.9-1.9-5.2-3.5-1.3-1.6-2.2-3.7-2.7-6.3-.5-2.6-.3-5.8.3-9.7 1.1-6.3 3.5-11.3 7.2-14.9 3.7-3.6 8.8-5.4 15.2-5.4h25.8l-1.7 9.5h-23.5c-1.6 0-3 .2-4.3.5-1.3.3-2.5.9-3.5 1.7-1 .8-1.9 1.9-2.7 3.3-.8 1.5-1.4 3.3-1.7 5.4zm77.6 20.6h-24.7c-2.9 0-5.2-.5-7.1-1.4-1.8-.9-3.2-2.3-4.2-4-.9-1.8-1.5-3.9-1.6-6.4-.1-2.5.1-5.4.7-8.7 1.1-6.3 3.2-11.3 6.3-14.9 3.1-3.6 7.2-5.4 12.4-5.4h25.3l-1.6 9.2H230c-1.5 0-2.7.2-3.8.5-1 .3-1.9.8-2.6 1.4-.7.6-1.3 1.3-1.7 2.1-.4.8-.8 1.7-1 2.6h29.5l-1.6 9.3h-29.5c-.5 4.3 1.7 6.4 6.8 6.4h21.6l-1.6 9.3zm33.8-31.6c-2.5 0-4.7.4-6.6 1.3-1.9.9-3.4 2.4-4.4 4.7h33.5l-.9 5c-1.1 6.3-3.5 11.3-7.3 14.9-3.7 3.6-8.7 5.4-15.1 5.4h-26l1.7-9.5h23.6c2.5 0 4.7-.5 6.6-1.4 1.9-.9 3.3-2.6 4.3-5H256l.8-4.6c1.1-6.3 3.5-11.3 7.3-14.9 3.7-3.6 8.8-5.4 15.2-5.4h25.9l-1.7 9.5h-23.6zm-152.8-9.3c-2 0-3.9.4-5.7 1.2-2.2.8-4 2-5.7 3.8-.2.1-.3.3-.5.4-1.6 1.6-3 3.4-4.2 5.4-1.1 2-1.9 4-2.3 6.1l-4.5 23.9h10.5l1.3-7 1.7-8.6h21.6l-1.5 8.6-1.3 7h10.8l7.7-40.8h-27.9zm-5.6 13.3c.2-.4.5-.8.8-1.1l.6-.6c.6-.5 1.2-.9 1.9-1.3.4-.2.7-.3 1.2-.5 1-.3 2.3-.5 3.8-.5h12.7l-1.2 6.6h-20.6c0-.9.4-1.8.8-2.6zM16.6 126.1l-1.9 1.6c-.9-1.2-2.1-1.8-3.5-1.8-1.2 0-2.3.4-3.2 1.2-1 .8-1.5 1.8-1.7 3-.1.8-.1 1.6.1 2.2.2.6.7 1.1 1.3 1.5.6.4 1.3.5 2.1.5.7 0 1.3-.1 1.9-.4.6-.3 1.3-.7 2.1-1.4l1.3 1.7c-1.1.9-2 1.5-2.9 1.9-.9.3-1.8.5-2.9.5-1.9 0-3.4-.6-4.4-1.8-1-1.2-1.4-2.8-1-4.7.2-1.2.7-2.3 1.4-3.3s1.7-1.7 2.8-2.3c1.1-.6 2.3-.9 3.5-.9 1 0 2 .2 2.8.6.9.5 1.6 1.1 2.2 1.9zm35.3-2.5h2.5l1.5 4.5 3.1-4.5h2.5l-4.9 7-.9 5.4h-2.4l.9-5.4-2.3-7zm57.8 2.5l-1.9 1.6c-.9-1.2-2.1-1.8-3.5-1.8-1.2 0-2.3.4-3.2 1.2-1 .8-1.5 1.8-1.7 3-.1.8-.1 1.6.2 2.2.2.6.7 1.1 1.3 1.5.6.4 1.3.5 2.1.5.7 0 1.3-.1 1.9-.4.6-.3 1.3-.7 2.1-1.4l1.3 1.7c-1.1.9-2 1.5-2.9 1.9-.9.3-1.8.5-2.9.5-1.9 0-3.4-.6-4.4-1.8-1-1.2-1.4-2.8-1-4.7.2-1.2.7-2.3 1.4-3.3s1.7-1.7 2.8-2.3c1.1-.6 2.3-.9 3.5-.9 1 0 2 .2 2.8.6.8.5 1.5 1.1 2.1 1.9zm39.2-2.5h2.4l-1.8 10.2h3.4l-.4 2.3h-5.8l2.2-12.5zm47.4 0h2.3l-2.2 12.4h-2.3l2.2-12.4zm42.8 0h2.3l3.9 8.2 1.4-8.2h2.4l-2.2 12.4h-2.3l-3.9-8.1-1.4 8.1h-2.4l2.2-12.4zm56.8 2.4l-2 1.6c-.9-1.1-2-1.7-3.4-1.7-1.2 0-2.3.4-3.3 1.2-1 .8-1.6 1.8-1.8 3-.2 1.2 0 2.2.7 3 .7.8 1.7 1.2 2.9 1.2.8 0 1.5-.2 2.2-.5.6-.3 1.2-.9 1.6-1.6h-3.6l.4-2.2h6.2l-.1.5c-.2 1.1-.7 2.1-1.4 3.1s-1.6 1.7-2.6 2.2c-1 .5-2.1.8-3.3.8-1.3 0-2.4-.3-3.3-.8-.9-.6-1.6-1.4-2-2.4-.4-1-.5-2.1-.3-3.3.3-1.6 1.1-3.1 2.4-4.3 1.5-1.4 3.3-2.2 5.4-2.2 1.1 0 2.1.2 2.9.6 1.1.4 1.8.9 2.4 1.8z"/><path class="st0" d="M120.8 47.9h32.9c3.5 0 6.7-.7 9.5-2s5.3-3.6 7.3-7h-3.4c-1.1 1.6-2.5 3-4.2 4.1-6.1 4-14.3 2.4-17.5-2.5-.3-.5-.5-1.1-.7-1.6h-21l2.2-6.3c3.1-8.9 7.7-15.8 13.8-20.9 6.1-5 13.6-7.5 22.6-7.5h4.5l.4-1.2h-9.9c-10.5 0-19.5 3.3-26.9 9.8-7.4 6.5-13.1 15.6-17.2 27.1l-2.8 7.9h10.4z"/><path d="M309.4 79c.4 0 .8.1 1.2.3.4.2.7.5.9.9.2.4.3.8.3 1.3s-.1.9-.3 1.3c-.2.4-.5.7-.9.9-.4.2-.8.3-1.2.3-.4 0-.8-.1-1.2-.3-.4-.2-.7-.5-.9-.9-.2-.4-.3-.8-.3-1.3s.1-.9.3-1.3c.2-.4.5-.7.9-.9.4-.1.8-.3 1.2-.3zm0 .4c-.4 0-.7.1-1.1.3-.3.2-.6.5-.8.8-.2.3-.3.7-.3 1.1 0 .4.1.8.3 1.1.2.3.4.6.8.8.3.2.7.3 1.1.3.4 0 .7-.1 1.1-.3.3-.2.6-.5.8-.8.2-.3.3-.7.3-1.1 0-.4-.1-.8-.3-1.1-.2-.3-.4-.6-.8-.8-.4-.2-.7-.3-1.1-.3zm-1.1.8V80h1.2c.3 0 .6.1.8.2.2.1.2.3.2.5s-.1.3-.2.5c-.1.1-.3.2-.5.3.1.1.3.3.4.6.1.3.2.5.3.5 0 .1.1.1.3.1v.2h-.4c-.1 0-.2 0-.3-.1-.1-.1-.2-.3-.3-.5-.1-.3-.2-.5-.3-.6-.1-.1-.2-.1-.4-.1h-.1v1h.3v.2h-1.1v-.2h.3v-2.5c0 .1-.1.1-.2.1zm.7 1.2h.2c.3 0 .6-.1.7-.2.1-.1.2-.3.2-.5s-.1-.3-.2-.4c-.1-.1-.3-.1-.6-.1h-.2v1.2z"/><path class="st0" d="M206.2 17.5c.4 0 .7.1 1 .3.3.2.5.4.7.8.2.3.3.7.3 1 0 .4-.1.7-.3 1-.2.3-.4.6-.7.8-.3.2-.6.3-1 .3s-.7-.1-1-.3c-.3-.2-.5-.4-.7-.8-.2-.3-.3-.7-.3-1 0-.4.1-.7.3-1 .2-.3.4-.6.7-.8.3-.2.6-.3 1-.3zm0 .3c-.3 0-.6.1-.9.2-.3.2-.5.4-.6.6-.2.3-.2.6-.2.9 0 .3.1.6.2.9.2.3.4.5.6.7.3.2.6.2.9.2.3 0 .6-.1.9-.2.3-.2.5-.4.6-.7.2-.3.2-.6.2-.9 0-.3-.1-.6-.2-.9-.2-.3-.4-.5-.6-.6-.3-.1-.6-.2-.9-.2zm-1 .6v-.2h1c.3 0 .5.1.6.2.1.1.2.3.2.4 0 .1 0 .3-.1.4-.1.1-.2.2-.4.2.1.1.2.2.3.5l.2.4s.1.1.2.1v.2h-.3c-.1 0-.2 0-.2-.1-.1-.1-.1-.2-.2-.4-.1-.3-.2-.4-.2-.5-.1 0-.1-.1-.3-.1h-.1v.9h.3v.2h-.9v-.2h.3v-2c-.1.1-.2.1-.4 0zm.6 1h.1c.3 0 .4 0 .6-.1.1-.1.2-.2.2-.4s0-.3-.1-.3c-.1-.1-.2-.1-.5-.1h-.2v.9z"/></svg>